<?xml version="1.0" encoding="UTF-8" standalone="no"?>
<!DOCTYPE svg PUBLIC "-//W3C//DTD SVG 1.1//EN"
 "http://www.w3.org/Graphics/SVG/1.1/DTD/svg11.dtd">
<!-- Generated by graphviz version 2.47.0 (20210316.0004)
 -->
<!-- Title: dependencies Pages: 1 -->
<svg width="1319pt" height="211pt"
 viewBox="0.00 0.00 1319.00 211.00" xmlns="http://www.w3.org/2000/svg" xmlns:xlink="http://www.w3.org/1999/xlink">
<g id="graph0" class="graph" transform="scale(1 1) rotate(0) translate(4 207)">
<title>dependencies</title>
<polygon fill="white" stroke="transparent" points="-4,4 -4,-207 1315,-207 1315,4 -4,4"/>
<text text-anchor="start" x="634.51" y="-42.4" font-family="Times-12" font-weight="bold" font-size="14.00">Legend</text>
<polygon fill="#ffffb3" stroke="transparent" points="421.5,-10 421.5,-30 441.5,-30 441.5,-10 421.5,-10"/>
<text text-anchor="start" x="445.13" y="-15.4" font-family="Times-12" font-size="14.00"> &#160;Declarations</text>
<polygon fill="#8dd3c7" stroke="transparent" points="534.5,-10 534.5,-30 554.5,-30 554.5,-10 534.5,-10"/>
<text text-anchor="start" x="558.23" y="-15.4" font-family="Times-12" font-size="14.00"> &#160;Module</text>
<polygon fill="#80b1d3" stroke="transparent" points="620.5,-10 620.5,-30 640.5,-30 640.5,-10 620.5,-10"/>
<text text-anchor="start" x="644.28" y="-15.4" font-family="Times-12" font-size="14.00"> &#160;Bootstrap</text>
<polygon fill="#fdb462" stroke="transparent" points="717.5,-10 717.5,-30 737.5,-30 737.5,-10 717.5,-10"/>
<text text-anchor="start" x="741.17" y="-15.4" font-family="Times-12" font-size="14.00"> &#160;Providers</text>
<polygon fill="#fb8072" stroke="transparent" points="813.5,-10 813.5,-30 833.5,-30 833.5,-10 813.5,-10"/>
<text text-anchor="start" x="837.23" y="-15.4" font-family="Times-12" font-size="14.00"> &#160;Exports</text>
<g id="clust1" class="cluster">
<title>cluster_AuthModule</title>
<polygon fill="none" stroke="black" stroke-dasharray="1,5" points="8,-70 8,-195 1303,-195 1303,-70 8,-70"/>
</g>
<g id="clust3" class="cluster">
<title>cluster_AuthModule_imports</title>
<polygon fill="none" stroke="black" points="1083,-78 1083,-130 1295,-130 1295,-78 1083,-78"/>
</g>
<g id="clust6" class="cluster">
<title>cluster_AuthModule_providers</title>
<polygon fill="none" stroke="black" points="16,-78 16,-130 1075,-130 1075,-78 16,-78"/>
</g>
<!-- EmailModule -->
<g id="node1" class="node">
<title>EmailModule</title>
<polygon fill="#8dd3c7" stroke="black" points="1287.49,-122 1284.49,-126 1263.49,-126 1260.49,-122 1194.51,-122 1194.51,-86 1287.49,-86 1287.49,-122"/>
<text text-anchor="middle" x="1241" y="-99.8" font-family="Times,serif" font-size="14.00">EmailModule</text>
</g>
<!-- AuthModule -->
<g id="node3" class="node">
<title>AuthModule</title>
<polygon fill="#8dd3c7" stroke="black" points="784.55,-187 781.55,-191 760.55,-191 757.55,-187 697.45,-187 697.45,-151 784.55,-151 784.55,-187"/>
<text text-anchor="middle" x="741" y="-164.8" font-family="Times,serif" font-size="14.00">AuthModule</text>
</g>
<!-- EmailModule&#45;&gt;AuthModule -->
<g id="edge1" class="edge">
<title>EmailModule&#45;&gt;AuthModule</title>
<path fill="none" stroke="black" d="M1241,-122.29C1241,-144.21 1241,-178 1241,-178 1241,-178 794.93,-178 794.93,-178"/>
<polygon fill="black" stroke="black" points="794.93,-174.5 784.93,-178 794.93,-181.5 794.93,-174.5"/>
</g>
<!-- UserModule -->
<g id="node2" class="node">
<title>UserModule</title>
<polygon fill="#8dd3c7" stroke="black" points="1176.98,-122 1173.98,-126 1152.98,-126 1149.98,-122 1091.02,-122 1091.02,-86 1176.98,-86 1176.98,-122"/>
<text text-anchor="middle" x="1134" y="-99.8" font-family="Times,serif" font-size="14.00">UserModule</text>
</g>
<!-- UserModule&#45;&gt;AuthModule -->
<g id="edge2" class="edge">
<title>UserModule&#45;&gt;AuthModule</title>
<path fill="none" stroke="black" d="M1134,-122.11C1134,-141.34 1134,-169 1134,-169 1134,-169 794.56,-169 794.56,-169"/>
<polygon fill="black" stroke="black" points="794.56,-165.5 784.56,-169 794.56,-172.5 794.56,-165.5"/>
</g>
<!-- AuthService -->
<g id="node4" class="node">
<title>AuthService</title>
<ellipse fill="#fdb462" stroke="black" cx="1008" cy="-104" rx="59.11" ry="18"/>
<text text-anchor="middle" x="1008" y="-99.8" font-family="Times,serif" font-size="14.00">AuthService</text>
</g>
<!-- AuthService&#45;&gt;AuthModule -->
<g id="edge3" class="edge">
<title>AuthService&#45;&gt;AuthModule</title>
<path fill="none" stroke="black" d="M1008,-122.03C1008,-138.4 1008,-160 1008,-160 1008,-160 794.79,-160 794.79,-160"/>
<polygon fill="black" stroke="black" points="794.79,-156.5 784.79,-160 794.79,-163.5 794.79,-156.5"/>
</g>
<!-- GoogleAuthStrategy -->
<g id="node5" class="node">
<title>GoogleAuthStrategy</title>
<ellipse fill="#fdb462" stroke="black" cx="840" cy="-104" rx="90.91" ry="18"/>
<text text-anchor="middle" x="840" y="-99.8" font-family="Times,serif" font-size="14.00">GoogleAuthStrategy</text>
</g>
<!-- GoogleAuthStrategy&#45;&gt;AuthModule -->
<g id="edge4" class="edge">
<title>GoogleAuthStrategy&#45;&gt;AuthModule</title>
<path fill="none" stroke="black" d="M766.91,-114.73C766.91,-114.73 766.91,-140.87 766.91,-140.87"/>
<polygon fill="black" stroke="black" points="763.41,-140.87 766.91,-150.87 770.41,-140.87 763.41,-140.87"/>
</g>
<!-- KakaoAuthStrategy -->
<g id="node6" class="node">
<title>KakaoAuthStrategy</title>
<ellipse fill="#fdb462" stroke="black" cx="643" cy="-104" rx="87.96" ry="18"/>
<text text-anchor="middle" x="643" y="-99.8" font-family="Times,serif" font-size="14.00">KakaoAuthStrategy</text>
</g>
<!-- KakaoAuthStrategy&#45;&gt;AuthModule -->
<g id="edge5" class="edge">
<title>KakaoAuthStrategy&#45;&gt;AuthModule</title>
<path fill="none" stroke="black" d="M713.98,-114.73C713.98,-114.73 713.98,-140.87 713.98,-140.87"/>
<polygon fill="black" stroke="black" points="710.48,-140.87 713.98,-150.87 717.48,-140.87 710.48,-140.87"/>
</g>
<!-- LocalAuthStrategy -->
<g id="node7" class="node">
<title>LocalAuthStrategy</title>
<ellipse fill="#fdb462" stroke="black" cx="453" cy="-104" rx="84.53" ry="18"/>
<text text-anchor="middle" x="453" y="-99.8" font-family="Times,serif" font-size="14.00">LocalAuthStrategy</text>
</g>
<!-- LocalAuthStrategy&#45;&gt;AuthModule -->
<g id="edge6" class="edge">
<title>LocalAuthStrategy&#45;&gt;AuthModule</title>
<path fill="none" stroke="black" d="M453,-122.03C453,-138.4 453,-160 453,-160 453,-160 687.26,-160 687.26,-160"/>
<polygon fill="black" stroke="black" points="687.26,-163.5 697.26,-160 687.26,-156.5 687.26,-163.5"/>
</g>
<!-- NaverAuthStrategy -->
<g id="node8" class="node">
<title>NaverAuthStrategy</title>
<ellipse fill="#fdb462" stroke="black" cx="264" cy="-104" rx="86.23" ry="18"/>
<text text-anchor="middle" x="264" y="-99.8" font-family="Times,serif" font-size="14.00">NaverAuthStrategy</text>
</g>
<!-- NaverAuthStrategy&#45;&gt;AuthModule -->
<g id="edge7" class="edge">
<title>NaverAuthStrategy&#45;&gt;AuthModule</title>
<path fill="none" stroke="black" d="M264,-122.11C264,-141.34 264,-169 264,-169 264,-169 687.4,-169 687.4,-169"/>
<polygon fill="black" stroke="black" points="687.4,-172.5 697.4,-169 687.4,-165.5 687.4,-172.5"/>
</g>
<!-- TokenStrategy -->
<g id="node9" class="node">
<title>TokenStrategy</title>
<ellipse fill="#fdb462" stroke="black" cx="92" cy="-104" rx="67.78" ry="18"/>
<text text-anchor="middle" x="92" y="-99.8" font-family="Times,serif" font-size="14.00">TokenStrategy</text>
</g>
<!-- TokenStrategy&#45;&gt;AuthModule -->
<g id="edge8" class="edge">
<title>TokenStrategy&#45;&gt;AuthModule</title>
<path fill="none" stroke="black" d="M92,-122.29C92,-144.21 92,-178 92,-178 92,-178 687.41,-178 687.41,-178"/>
<polygon fill="black" stroke="black" points="687.41,-181.5 697.41,-178 687.41,-174.5 687.41,-181.5"/>
</g>
</g>
</svg>
